<svg width="19" height="19" viewBox="0 0 19 19" fill="none" xmlns="http://www.w3.org/2000/svg">
<path d="M9.29895 1.11317C10.9341 1.06268 12.5272 1.63645 13.754 2.71864C14.9809 3.801 15.7497 5.31047 15.9034 6.93934C16.0543 8.53827 15.5991 10.133 14.6339 11.4139L17.9679 14.747C18.0507 14.8297 18.1164 14.9279 18.1613 15.036C18.2061 15.1443 18.2296 15.2607 18.2296 15.3778C18.2296 15.4949 18.2061 15.6114 18.1613 15.7196C18.1164 15.8277 18.0506 15.9259 17.9679 16.0087C17.8851 16.0914 17.7869 16.1572 17.6788 16.202C17.5706 16.2469 17.4542 16.2694 17.337 16.2694C17.2199 16.2694 17.1035 16.2469 16.9952 16.202C16.8871 16.1572 16.7889 16.0914 16.7062 16.0087L13.3732 12.6747C12.0924 13.6424 10.4961 14.0991 8.89563 13.9491C7.26556 13.7962 5.75507 13.0275 4.672 11.7997C3.58893 10.5719 3.01484 8.97714 3.06653 7.34071C3.11834 5.70411 3.79261 4.14807 4.95129 2.9911C6.10892 1.83516 7.66378 1.16377 9.29895 1.11317ZM9.50891 2.91883C8.28222 2.92383 7.10679 3.41275 6.23938 4.28016C5.37201 5.14756 4.88305 6.32303 4.87805 7.54969C4.87312 8.77629 5.35276 9.95558 6.21301 10.83C6.64341 11.2674 7.15632 11.6151 7.7218 11.8534C8.28746 12.0918 8.89508 12.2161 9.50891 12.2186C10.1225 12.2211 10.7305 12.1017 11.298 11.868C11.8655 11.6343 12.3815 11.2904 12.8156 10.8563C13.2496 10.4223 13.5935 9.90634 13.8273 9.33875C14.0609 8.77132 14.1803 8.16334 14.1779 7.54969C14.1754 6.93586 14.051 6.32824 13.8126 5.76258C13.5743 5.19708 13.2266 4.6842 12.7892 4.25379C11.9148 3.39351 10.7355 2.91387 9.50891 2.91883Z" fill="black" stroke="black" stroke-width="0.2"/>
</svg>
